<svg id="Camada_1" data-name="Camada 1" xmlns="http://www.w3.org/2000/svg" viewBox="0 0 46 46"><path d="M48,16.19a1.68,1.68,0,0,1-1.84,1c-.73-.05-1.47,0-2.2,0A5,5,0,0,0,44,15.9c0-.48-.11-1-.17-1.42.79,0,1.59,0,2.38,0a1.61,1.61,0,0,1,1.75,1Z" transform="translate(-2 -2)" fill="#fb7964"/><path d="M17.65,44c0,.77,0,1.53,0,2.29A1.55,1.55,0,0,1,16.56,48H16A1.68,1.68,0,0,1,15,46.15c0-.73,0-1.46,0-2.19Z" transform="translate(-2 -2)" fill="#fb7964"/><path d="M17.65,44H15c-.54-.13-1.09-.25-1.63-.4A11.62,11.62,0,0,1,10,41.89L9,41c.62-.65,1.25-1.3,1.87-2H11a7,7,0,0,0,4.71,2.21,7.33,7.33,0,0,0,6-2.17q8.71-8.68,17.4-17.4a7.29,7.29,0,0,0,2.21-4.73,7.37,7.37,0,0,0-2.15-6v-.07c.11-.13.21-.26.32-.37L40.91,9H41l.9,1a11.46,11.46,0,0,1,2,4.49c.06.47.12.94.17,1.42A5,5,0,0,1,44,17.18a10.26,10.26,0,0,1-1.45,4.46c-.09.15-.23.27-.24.47-.31.37-.64.73-.92,1.12s-.66.52-.8.94c-.17,0-.26.12-.36.22L36.8,27.78c-.1.1-.24.19-.22.36A10.58,10.58,0,0,0,35,29.61c-.13.12-.29.23-.3.43-.14,0-.22.06-.3.14l-3.64,3.65a.75.75,0,0,0-.09.15,21.07,21.07,0,0,0-1.89,1.89,1.9,1.9,0,0,0-.56.5L25.07,39.5c-.11.11-.28.2-.24.4a17.77,17.77,0,0,0-2,1.8,21.54,21.54,0,0,1-1.94,1.2,10.65,10.65,0,0,1-3,1C17.84,43.88,17.75,43.92,17.65,44Z" transform="translate(-2 -2)" fill="#fea289"/><path d="M10.89,39,9,41h-.1a3.62,3.62,0,0,0-.81-1c-.3-.49-.62-1-.9-1.48a9.19,9.19,0,0,1-1.08-3.42A3.25,3.25,0,0,1,6,34.21c0-.6,0-1.21,0-1.81s.25-1.09.41-1.63A9.66,9.66,0,0,1,8,27.67a.42.42,0,0,0,.13-.32,15.7,15.7,0,0,0,1.3-1.28c.2-.19.46-.34.53-.65.14,0,.21-.09.29-.17l3.54-3.54a.6.6,0,0,0,.22-.32,13.34,13.34,0,0,0,1.95-1.88c1.38-1.32,2.72-2.66,4-4,.39-.38.8-.75,1.18-1.15.25-.25.57-.44.7-.8a.55.55,0,0,0,.32-.22l3.54-3.53c.08-.08.18-.16.17-.3.74-.5,1.31-1.2,2-1.74a15.6,15.6,0,0,1,2.62-1.22A9.91,9.91,0,0,1,32.92,6a18.75,18.75,0,0,1,2.7.09c.64.23,1.3.36,1.94.61A15.33,15.33,0,0,1,40,8.1c.27.34.68.52.91.9l-1.49,1.54c-.11.11-.21.24-.32.37l-.1-.08A7.59,7.59,0,0,0,28.25,11L10.82,28.45A7.61,7.61,0,0,0,10.89,39Z" transform="translate(-2 -2)" fill="#febba6"/><path d="M21.85,13.52c-.13.36-.45.55-.7.8-.38.4-.79.77-1.18,1.15-.61-.59-1.22-1.19-1.81-1.8a1.36,1.36,0,1,1,1.94-1.88C20.68,12.36,21.26,13,21.85,13.52Z" transform="translate(-2 -2)" fill="#fe907c"/><path d="M15.93,19.51A13.34,13.34,0,0,1,14,21.39l-1.73-1.75a1.36,1.36,0,1,1,1.89-1.94C14.74,18.29,15.34,18.9,15.93,19.51Z" transform="translate(-2 -2)" fill="#fe907c"/><path d="M35.62,6.13A18.75,18.75,0,0,0,32.92,6c0-.87,0-1.74,0-2.6a1.35,1.35,0,0,1,2.61-.57,1.41,1.41,0,0,1,.08.57Z" transform="translate(-2 -2)" fill="#fe8f7a"/><path d="M6,32.4c0,.6,0,1.21,0,1.81a3.25,3.25,0,0,0,.09.88H3.44A1.35,1.35,0,0,1,2,33.84a1.31,1.31,0,0,1,1.25-1.42C4.18,32.36,5.11,32.4,6,32.4Z" transform="translate(-2 -2)" fill="#fe8f7a"/><path d="M27.9,7.73c-.71.54-1.28,1.24-2,1.74-.62-.61-1.24-1.21-1.84-1.83a1.3,1.3,0,0,1,0-1.86,1.33,1.33,0,0,1,1.89,0C26.6,6.4,27.24,7.07,27.9,7.73Z" transform="translate(-2 -2)" fill="#fe8f7a"/><path d="M9.93,25.42c-.07.31-.33.46-.53.65a15.7,15.7,0,0,1-1.3,1.28c-.63-.63-1.27-1.24-1.88-1.87A1.34,1.34,0,0,1,8.1,23.57C8.72,24.18,9.32,24.81,9.93,25.42Z" transform="translate(-2 -2)" fill="#fe8f7a"/><path d="M8.92,41H9l1,.91c-.64.65-1.27,1.31-1.92,1.94a1.31,1.31,0,0,1-1.85,0c0-.21.18-.3.3-.43C7.32,42.6,8.18,41.84,8.92,41Z" transform="translate(-2 -2)" fill="#fb7a66"/><path d="M41.9,10,41,9c.9-1,1.83-1.91,2.81-2.8a1.28,1.28,0,0,1,0,1.87C43.21,8.73,42.55,9.35,41.9,10Z" transform="translate(-2 -2)" fill="#fb7a66"/><path d="M8.92,41c-.74.87-1.6,1.63-2.39,2.46-.12.13-.3.22-.3.43a1.32,1.32,0,0,1-.05-2c.62-.65,1.28-1.28,1.93-1.92A3.62,3.62,0,0,1,8.92,41Z" transform="translate(-2 -2)" fill="#fe907c"/><path d="M43.81,6.2C42.83,7.09,41.9,8,41,9h-.09c-.23-.38-.64-.56-.91-.9.64-.65,1.27-1.32,1.93-1.94A1.28,1.28,0,0,1,43.81,6.2Z" transform="translate(-2 -2)" fill="#fe907b"/><path d="M22.85,41.7a17.77,17.77,0,0,1,2-1.8c.6.59,1.2,1.17,1.78,1.77a1.34,1.34,0,1,1-1.9,1.9C24.07,43,23.47,42.33,22.85,41.7Z" transform="translate(-2 -2)" fill="#fb7a66"/><path d="M28.77,35.87A21.07,21.07,0,0,1,30.66,34c.62.61,1.25,1.2,1.84,1.83a1.34,1.34,0,1,1-1.9,1.9C30,37.12,29.38,36.49,28.77,35.87Z" transform="translate(-2 -2)" fill="#fb7b66"/><path d="M40.55,24.17c.14-.42.55-.61.8-.94s.61-.75.92-1.12c.67.66,1.35,1.3,2,2A1.34,1.34,0,0,1,42.36,26C41.75,25.38,41.15,24.77,40.55,24.17Z" transform="translate(-2 -2)" fill="#fb7964"/><path d="M34.69,30c0-.2.17-.31.3-.43a10.58,10.58,0,0,1,1.59-1.47l1.74,1.75a1.34,1.34,0,1,1-1.89,1.9C35.84,31.22,35.27,30.63,34.69,30Z" transform="translate(-2 -2)" fill="#fb7964"/><path d="M39.1,11a7.37,7.37,0,0,1,2.15,6A7.29,7.29,0,0,1,39,21.67q-8.68,8.71-17.4,17.4a7.33,7.33,0,0,1-6,2.17A7,7,0,0,1,11,39c1-1.06,2-2.1,3.09-3.08a1.46,1.46,0,0,0,2.37-.35c.08-.11.17-.21.24-.32a5.41,5.41,0,0,0,.87-2.64v-.26l2.64-2.6c.12-.12.22-.29.42-.3s.19.26.28.4A4.74,4.74,0,0,0,25,32.18a1.35,1.35,0,0,0,0-2.69,2.2,2.2,0,0,1-2.19-2.25v-.18c.48-.46,1-.91,1.43-1.39a13.78,13.78,0,0,0,1.45-1.51,7.51,7.51,0,0,0,1.06-1.05c.09,0,.1-.11.1-.19h0l.09-.09h0c.21,0,.3-.17.43-.29l5-5c.12-.12.22-.29.42-.31,0,.18,0,.36,0,.54a4.61,4.61,0,0,0,1.45,3.39,1.26,1.26,0,0,0,1.41.29,1.29,1.29,0,0,0,.83-1.21,1.66,1.66,0,0,0-.5-1.2,2,2,0,0,1-.3-2.22,7.41,7.41,0,0,1,.64-.91,1.23,1.23,0,0,0-.56-1.82.25.25,0,0,0,0-.08c.21,0,.31-.17.43-.3l2.5-2.49C38.82,11.14,38.91,11,39.1,11Z" transform="translate(-2 -2)" fill="#f9184b"/><path d="M32.81,17.26c-.2,0-.3.19-.42.31l-5,5c-.13.12-.22.29-.43.29.05-.14.1-.28.16-.42a4.63,4.63,0,0,0,.45-2.12,4.9,4.9,0,0,0-1.24-3.15,1.37,1.37,0,1,0-2.07,1.77,2.09,2.09,0,0,1,0,3,1.33,1.33,0,0,0,.47,2.18,2.2,2.2,0,0,0,1,0,13.78,13.78,0,0,1-1.45,1.51c-.46.48-1,.93-1.43,1.39l-.09-.2a1.36,1.36,0,0,0-1.5-.87,1.4,1.4,0,0,0-1.1,1.38,4.1,4.1,0,0,0,.45,1.94v.17c-.2,0-.3.18-.42.3l-2.64,2.6a2.21,2.21,0,0,1-.08-.35,4.5,4.5,0,0,0-1.41-2.91,1.33,1.33,0,0,0-1.89,0,1.28,1.28,0,0,0,0,1.85,2.3,2.3,0,0,1,0,3.08,1.2,1.2,0,0,0-.14,1.7V36C13,36.93,12,38,11,39h-.08a7.61,7.61,0,0,1-.07-10.57L28.25,11A7.59,7.59,0,0,1,39,10.83l.1.08V11c-.19,0-.28.16-.39.27l-2.5,2.49c-.12.13-.22.29-.43.3a1.35,1.35,0,0,0-1.4.13A4.19,4.19,0,0,0,32.91,17Z" transform="translate(-2 -2)" fill="#fe4566"/><path d="M25.73,24.16a2.2,2.2,0,0,1-1,0,1.33,1.33,0,0,1-.47-2.18,2.09,2.09,0,0,0,0-3,1.37,1.37,0,1,1,2.07-1.77,4.9,4.9,0,0,1,1.24,3.15,4.63,4.63,0,0,1-.45,2.12c-.06.14-.11.28-.16.42h0l-.09.09h0l-.1.19A7.51,7.51,0,0,1,25.73,24.16Z" transform="translate(-2 -2)" fill="#dd0b3e"/><path d="M32.81,17.26l.1-.26a.44.44,0,0,0,.3-.17l2.41-2.41a.42.42,0,0,0,.17-.3,1.23,1.23,0,0,1,.56,1.82,7.41,7.41,0,0,0-.64.91,2,2,0,0,0,.3,2.22,1.66,1.66,0,0,1,.5,1.2,1.29,1.29,0,0,1-.83,1.21,1.26,1.26,0,0,1-1.41-.29,4.61,4.61,0,0,1-1.45-3.39C32.82,17.62,32.81,17.44,32.81,17.26Z" transform="translate(-2 -2)" fill="#bd0533"/><path d="M14.05,35.78a1.2,1.2,0,0,1,.14-1.7,2.3,2.3,0,0,0,0-3.08,1.28,1.28,0,0,1,0-1.85,1.33,1.33,0,0,1,1.89,0A4.5,4.5,0,0,1,17.46,32a2.21,2.21,0,0,0,.08.35v.26a1.56,1.56,0,0,0-.71.51c-.87.88-1.77,1.73-2.65,2.6A.5.5,0,0,1,14.05,35.78Z" transform="translate(-2 -2)" fill="#dd0a3e"/><path d="M20.6,29.48v-.17c.15,0,.22-.12.32-.22l1.92-1.85A2.2,2.2,0,0,0,25,29.49a1.35,1.35,0,0,1,0,2.69,4.74,4.74,0,0,1-4.15-2.3C20.79,29.74,20.7,29.61,20.6,29.48Z" transform="translate(-2 -2)" fill="#bd0533"/><path d="M22.85,27.24l-1.92,1.85c-.1.1-.17.21-.32.22a4.1,4.1,0,0,1-.45-1.94A1.4,1.4,0,0,1,21.26,26a1.36,1.36,0,0,1,1.5.87l.09.2Z" transform="translate(-2 -2)" fill="#dd0a3e"/><path d="M14.05,35.78a.5.5,0,0,0,.13,0c.88-.87,1.78-1.72,2.65-2.6a1.56,1.56,0,0,1,.71-.51,5.41,5.41,0,0,1-.87,2.64c-.07.11-.16.21-.24.32a1.46,1.46,0,0,1-2.37.35C14.06,35.9,14.05,35.84,14.05,35.78Z" transform="translate(-2 -2)" fill="#bd0533"/><path d="M35.79,14.12a.42.42,0,0,1-.17.3l-2.41,2.41a.44.44,0,0,1-.3.17,4.19,4.19,0,0,1,1.47-2.83,1.35,1.35,0,0,1,1.4-.13A.25.25,0,0,1,35.79,14.12Z" transform="translate(-2 -2)" fill="#dd0a3e"/><path d="M26.79,23.11l.1-.19C26.89,23,26.88,23.08,26.79,23.11Z" transform="translate(-2 -2)" fill="#fe4566"/><path d="M26.89,22.93l.09-.09Z" transform="translate(-2 -2)" fill="#fe4566"/></svg>