<svg id="Camada_1" data-name="Camada 1" xmlns="http://www.w3.org/2000/svg" viewBox="0 0 46.16 38.85"><path d="M27.84,31.86l-3.18-2.45c-1-.75-2-1.48-2.93-2.24a3.38,3.38,0,0,1-.4-5.05c2.25-2.32,4.54-4.59,6.81-6.89l.22-.14c.82.73,1.66,1.44,2.48,2.19a3.59,3.59,0,0,0,4.2.8A3.53,3.53,0,0,0,37.2,14.4a.65.65,0,0,1,0-.19,2.33,2.33,0,0,1,1,3.41,6.25,6.25,0,0,1-1.66,1.85c-2.36,1.78-4.78,3.47-7.18,5.19l-.53.4,3.59,4c.63.71,1.28,1.41,1.91,2.13a2.76,2.76,0,0,1-1.2,4.4q-5.91,1.83-11.86,3.59a2.1,2.1,0,0,1-2.7-1.42,2,2,0,0,1,1.28-2.75c2.46-1,4.93-2,7.4-2.94Z" transform="translate(-1.92 -5.57)" fill="#00a99d"/><path d="M19.17,24.46c0,2.8,2.11,3.89,3.87,5.26l-3.71,3.4L7.73,43.67a2.32,2.32,0,0,1-2.44.63,2.1,2.1,0,0,1-.88-3.55c2.09-2.34,4.21-4.65,6.32-7l8-8.78Z" transform="translate(-1.92 -5.57)" fill="#00a99d"/><path d="M25.16,11.15c-1.68,1.88-3.3,3.7-4.93,5.5a1.62,1.62,0,0,1-2.36.29,1.58,1.58,0,0,1-.43-2.28c1.87-2.7,3.77-5.4,5.69-8.07a2.1,2.1,0,0,1,2.93-.48q4.56,3.22,9.08,6.52a2.64,2.64,0,0,1,.63,3.59,2.86,2.86,0,0,1-3.74.61,14.67,14.67,0,0,1-1.82-1.43C28.54,14,26.88,12.6,25.16,11.15Z" transform="translate(-1.92 -5.57)" fill="#00a99d"/><path d="M42.05,5.58a4.72,4.72,0,1,1-4.79,4.64A4.72,4.72,0,0,1,42.05,5.58Z" transform="translate(-1.92 -5.57)" fill="#00a99d"/><path d="M33.21,23.26l4-2.74a5.88,5.88,0,0,1,.57,1c.32.92,1,1.12,1.89,1.15,2.2,0,4.4.18,6.59.3a1.69,1.69,0,0,1,1.79,1.74,1.67,1.67,0,0,1-1.79,1.73c-3,.16-6,.29-9,.46a2.46,2.46,0,0,1-2.41-1.21C34.38,24.88,33.8,24.1,33.21,23.26Z" transform="translate(-1.92 -5.57)" fill="#00a99d"/><rect y="6.43" width="14" height="2" rx="1" fill="#0071bc"/><rect x="5" y="16.43" width="9" height="2" rx="1" fill="#0071bc"/><rect x="2" y="11.43" width="12" height="2" rx="1" fill="#0071bc"/></svg>