<svg id="Camada_1" data-name="Camada 1" xmlns="http://www.w3.org/2000/svg" viewBox="0 0 37.68 49"><path d="M18.74,1.43A1,1,0,0,0,17.59.5H14.34a1,1,0,0,0-1.1.92h-.62a5.55,5.55,0,0,0-1.72.15,1.13,1.13,0,0,0-.18,0,6,6,0,0,0-3.13,2A5.84,5.84,0,0,0,6.16,7.41V41.93c0,.18,0,.36,0,.55a7.4,7.4,0,0,0,.31,2.92,6,6,0,0,0,5.77,4.09h31.4c.14,0,.18,0,.18-.19,0-.82,0-1.63,0-2.45,0-.14-.05-.19-.19-.19s-.45,0-.68,0c-.13-.58-.36-1.13-.47-1.72a8.8,8.8,0,0,1,0-2.94,15.74,15.74,0,0,1,.46-1.7c.24,0,.49,0,.73,0s.19,0,.19-.19c0-.89,0-1.79,0-2.69a2.45,2.45,0,0,0,0-.27q0-17.68,0-35.38c0-.27-.06-.34-.34-.34H18.74Z" transform="translate(-6.16 -0.5)" fill="#fefefe"/><path d="M10.9,1.58a5.55,5.55,0,0,1,1.72-.15h.62a2.44,2.44,0,0,1,0,.27V13.14l.58-.52c0,.51,0,1,0,1.54,0,.09-.05.21.06.25s.13-.08.18-.14l2.2-2.14c.12-.11.19-.16.33,0,.8.73,1.61,1.45,2.43,2.17.06.05.1.18.21.13s0-.15,0-.23V1.43H43.5c.28,0,.34.07.34.34q0,17.7,0,35.38a2.45,2.45,0,0,1,0,.27H12.16a4.93,4.93,0,0,0-1.26.15v-36ZM27.35,29.19H40.82c.26,0,.36,0,.36-.33,0-4.36,0-8.71,0-13.06,0-.27-.07-.33-.33-.33H13.9c-.29,0-.34.08-.34.35q0,6.51,0,13c0,.28.08.34.35.34Z" transform="translate(-6.16 -0.5)" fill="#63afb7"/><path d="M10.9,37.57a4.93,4.93,0,0,1,1.26-.15H43.82c0,.9,0,1.8,0,2.69,0,.15-.05.19-.19.19s-.49,0-.73,0l-.35,0H12.06a3.17,3.17,0,0,0-2.81,4.42,3.1,3.1,0,0,0,3,2H43c.23,0,.46,0,.68,0s.19,0,.19.19c0,.82,0,1.63,0,2.45,0,.14,0,.21-.18.19H12.26A6,6,0,0,1,6.49,45.4a7.4,7.4,0,0,1-.31-2.92c.1,0,.08-.1.1-.17A5.85,5.85,0,0,1,7,40.37,6.15,6.15,0,0,1,8.4,38.79,6.09,6.09,0,0,1,10.9,37.57Z" transform="translate(-6.16 -0.5)" fill="#447d88"/><path d="M43,46.66H12.27a3.1,3.1,0,0,1-3-2,3.17,3.17,0,0,1,2.81-4.42H42.57l.35,0a15.74,15.74,0,0,0-.46,1.7,8.8,8.8,0,0,0,0,2.94C42.61,45.53,42.84,46.08,43,46.66Z" transform="translate(-6.16 -0.5)" fill="#fed8a7"/><path d="M10.9,37.57a6.09,6.09,0,0,0-2.5,1.22A6.15,6.15,0,0,0,7,40.37a5.85,5.85,0,0,0-.73,1.94c0,.07,0,.15-.1.17,0-.19,0-.37,0-.55V7.41A5.84,5.84,0,0,1,7.59,3.57a6,6,0,0,1,3.13-2,1.13,1.13,0,0,1,.18,0v36Z" transform="translate(-6.16 -0.5)" fill="#5199a2"/><path d="M13.83,12.62l-.58.52V1.69a2.44,2.44,0,0,0,0-.27A1,1,0,0,1,14.34.5h3.25a1,1,0,0,1,1.15.93c0,.11,0,.21,0,.32V12.83c0,.07,0,.18,0,.22s-.15-.06-.21-.12L16,10.77c-.08-.07-.13-.18-.26,0Z" transform="translate(-6.16 -0.5)" fill="#dc2b1c"/><path d="M13.83,12.62l1.95-1.9c.13-.13.18,0,.26,0l2.44,2.16c.06.06.12.17.21.12s0-.15,0-.22V1.75c0-.11,0-.21,0-.32h.54V14.17c0,.08,0,.19,0,.23s-.15-.08-.21-.13c-.82-.72-1.63-1.44-2.43-2.17-.14-.13-.21-.08-.33,0l-2.2,2.14c-.05.06-.11.16-.18.14s-.06-.16-.06-.25C13.84,13.65,13.84,13.13,13.83,12.62Z" transform="translate(-6.16 -0.5)" fill="#5199a2"/><path d="M27.35,29.19H13.91c-.27,0-.35-.06-.35-.34q0-6.51,0-13c0-.27,0-.35.34-.35H40.84c.26,0,.33.06.33.33,0,4.35,0,8.7,0,13.06,0,.29-.1.33-.36.33Zm-4.22-11.5h-.82c-.18,0-.23,0-.25.22-.15.95-.31,1.89-.47,2.84l-.93,5.66c0,.16,0,.23.18.23a6.76,6.76,0,0,1,.9,0c.18,0,.23-.07.25-.23.05-.4.12-.81.17-1.21,0-.16.08-.19.22-.19h1.34c.15,0,.2,0,.22.19,0,.42.13.83.18,1.24,0,.15.07.2.22.2a7.53,7.53,0,0,1,.95,0c.25,0,.29-.06.25-.3-.46-2.82-.91-5.63-1.35-8.45,0-.17-.09-.21-.25-.21Zm7.58,7.65a.39.39,0,0,1,.06-.25c.74-1.77,1.46-3.54,2.22-5.29a4,4,0,0,0,.36-1.92c0-.14,0-.19-.19-.19H29.52c-.15,0-.18.06-.18.19a7.48,7.48,0,0,1,0,.82c0,.21.07.25.26.25h2c.24,0,.27,0,.18.26-.75,1.8-1.47,3.61-2.25,5.4a4.22,4.22,0,0,0-.31,1.85c0,.13,0,.18.18.18h3.76c.15,0,.18-.06.17-.19a6.4,6.4,0,0,1,0-.76c0-.27-.05-.36-.34-.35C32.24,25.35,31.47,25.34,30.71,25.34Zm-3.39-3.83H26.23c-.13,0-.2,0-.19.18,0,.32,0,.63,0,.95,0,.13.05.17.18.17h2.2c.15,0,.18-.07.18-.2a8.81,8.81,0,0,1,0-.89c0-.18-.06-.21-.22-.21Z" transform="translate(-6.16 -0.5)" fill="#80d7de"/><path d="M23.13,17.69h.81c.16,0,.22,0,.25.21.44,2.82.89,5.63,1.35,8.45,0,.24,0,.32-.25.3a7.53,7.53,0,0,0-.95,0c-.15,0-.21-.05-.22-.2-.05-.41-.13-.82-.18-1.24,0-.14-.07-.2-.22-.19H22.38c-.14,0-.2,0-.22.19-.05.4-.12.81-.17,1.21,0,.16-.07.24-.25.23a6.76,6.76,0,0,0-.9,0c-.19,0-.21-.07-.18-.23l.93-5.66c.16-.95.32-1.89.47-2.84,0-.17.07-.23.25-.22Zm-.06,1.75H23c-.07.47-.13.93-.2,1.39-.14.9-.27,1.79-.42,2.69,0,.25,0,.31.27.29a7.85,7.85,0,0,1,.84,0c.16,0,.21,0,.19-.2C23.48,22.22,23.27,20.83,23.07,19.44Z" transform="translate(-6.16 -0.5)" fill="#2b3437"/><path d="M30.71,25.34c.76,0,1.53,0,2.3,0,.29,0,.36.08.34.35a6.4,6.4,0,0,0,0,.76c0,.13,0,.19-.17.19H29.41c-.14,0-.18-.05-.18-.18a4.22,4.22,0,0,1,.31-1.85c.78-1.79,1.5-3.6,2.25-5.4.09-.21.06-.27-.18-.26h-2c-.19,0-.28,0-.26-.25a7.48,7.48,0,0,0,0-.82c0-.13,0-.19.18-.19h3.64c.15,0,.18,0,.19.19A4,4,0,0,1,33,19.8c-.76,1.75-1.48,3.52-2.22,5.29A.39.39,0,0,0,30.71,25.34Z" transform="translate(-6.16 -0.5)" fill="#2b3437"/><path d="M27.32,21.51h1.06c.16,0,.23,0,.22.21a8.81,8.81,0,0,0,0,.89c0,.13,0,.2-.18.2h-2.2c-.13,0-.18,0-.18-.17,0-.32,0-.63,0-.95,0-.15.06-.18.19-.18Z" transform="translate(-6.16 -0.5)" fill="#2c3639"/><path d="M23.07,19.44c.2,1.39.41,2.78.62,4.16,0,.17,0,.21-.19.2a7.85,7.85,0,0,0-.84,0c-.24,0-.31,0-.27-.29.15-.9.28-1.79.42-2.69.07-.46.13-.92.2-1.39Z" transform="translate(-6.16 -0.5)" fill="#7fd4da"/></svg>