<svg id="Camada_2" data-name="Camada 2" xmlns="http://www.w3.org/2000/svg" viewBox="0 0 34.6 47.39"><path d="M9.53,46.57V21.32a10.46,10.46,0,0,1,1.83-5.94V12A11.39,11.39,0,0,0,7.7,20.39v28.3H32.64v-.06a9.52,9.52,0,0,1-5.93-2.06Z" transform="translate(-7.7 -1.31)" fill="#282828"/><path d="M30.81,21.32v8.2a9.23,9.23,0,0,1,1.83-.18V20.39A11.39,11.39,0,0,0,29,12v3.37A10.46,10.46,0,0,1,30.81,21.32Z" transform="translate(-7.7 -1.31)" fill="#282828"/><path d="M23,39a9.65,9.65,0,0,1,7.8-9.47v-8.2A10.46,10.46,0,0,0,29,15.38v8.54a7,7,0,0,1-7,7H18.13a6.77,6.77,0,0,1-6.77-6.77V15.38a10.46,10.46,0,0,0-1.83,5.94V46.57H26.71A9.6,9.6,0,0,1,23,39Z" transform="translate(-7.7 -1.31)" fill="#fdc799"/><path d="M20.37,8l.33.33a2.44,2.44,0,0,1,.59.67A11.41,11.41,0,0,1,22.61,9a4.32,4.32,0,0,0-1.09-1.58c-2.71-2.4-1.44-5-1.44-5a10,10,0,0,1,2,.29,7.84,7.84,0,0,1,5.43,7.61v.48A10.94,10.94,0,0,1,29,12V10.12a8.8,8.8,0,0,0-8.81-8.81h0a8.8,8.8,0,0,0-8.81,8.81V12a11.35,11.35,0,0,1,4.24-2.5A7.72,7.72,0,0,1,20.37,8Zm-7.65,2.41A8.2,8.2,0,0,1,17.09,3,6.07,6.07,0,0,1,19,2.47s-.18.5-.17.5a3.72,3.72,0,0,0,.5,3.82l0,0h0l0,0a10.1,10.1,0,0,0-6.65,4Z" transform="translate(-7.7 -1.31)" fill="#282828"/><path d="M23,11.14v0A4.89,4.89,0,0,0,22.61,9,11.41,11.41,0,0,0,21.29,9a5.33,5.33,0,0,1,.68,2C22.31,11,22.66,11.05,23,11.14Z" transform="translate(-7.7 -1.31)" fill="#282828"/><path d="M27.52,12.43a11.41,11.41,0,0,1-1.42.11A10.52,10.52,0,0,1,29,15.38V12a10.94,10.94,0,0,0-1.46-1.16Z" transform="translate(-7.7 -1.31)" fill="#282828"/><path d="M12.72,13.77V12.45A12,12,0,0,1,15.6,9.51,11.35,11.35,0,0,0,11.36,12v3.37A11,11,0,0,1,12.72,13.77Z" transform="translate(-7.7 -1.31)" fill="#282828"/><path d="M18.13,30.9H22a7,7,0,0,0,7-7V15.38a10.52,10.52,0,0,0-2.88-2.84c-1.41,0-3.13-.24-3.11-1.4-.33-.09-.68-.16-1-.22A6.64,6.64,0,0,1,22,12.11C22,13.78,26.38,14,27.52,13.78l.07,9.56a6.34,6.34,0,0,1-.67,2.86,7.43,7.43,0,0,0-6.76-4.61h0a7.45,7.45,0,0,0-6.8,4.69,6.06,6.06,0,0,1-.64-2.73V13.77a11,11,0,0,0-1.36,1.61v8.75A6.77,6.77,0,0,0,18.13,30.9Zm2.09-7.81h0a6.19,6.19,0,0,1,5.64,3.82,4.48,4.48,0,0,1-4.12,2.5H18.53a4.62,4.62,0,0,1-4.15-2.5A6.38,6.38,0,0,1,20.22,23.09Z" transform="translate(-7.7 -1.31)" fill="#282828"/><path d="M18.53,29.41h3.21a4.48,4.48,0,0,0,4.12-2.5,6.19,6.19,0,0,0-5.64-3.82h0a6.38,6.38,0,0,0-5.84,3.82A4.62,4.62,0,0,0,18.53,29.41Z" transform="translate(-7.7 -1.31)" fill="#fff"/><path d="M21.21,9h.08a2.44,2.44,0,0,0-.59-.67L20.37,8A7.72,7.72,0,0,0,15.6,9.51,11.44,11.44,0,0,1,19.13,9Z" transform="translate(-7.7 -1.31)" fill="#fdc799"/><path d="M14.45,12.41a10.44,10.44,0,0,1,5.61-1.63h.22a10.51,10.51,0,0,1,1.69.14,5.33,5.33,0,0,0-.68-2H19.13a11.44,11.44,0,0,0-3.53.56,12,12,0,0,0-2.88,2.94v1.32a10.86,10.86,0,0,1,1.68-1.34Z" transform="translate(-7.7 -1.31)" fill="#fdc799"/><path d="M13.36,26.28a7.45,7.45,0,0,1,6.8-4.69h0a7.43,7.43,0,0,1,6.76,4.61,6.34,6.34,0,0,0,.67-2.86l-.07-9.56c-1.14.18-5.55,0-5.49-1.67A6.64,6.64,0,0,0,22,10.92a10.51,10.51,0,0,0-1.69-.14h-.22a10.44,10.44,0,0,0-5.61,1.63.78.78,0,0,1,.43-.13.83.83,0,0,1,.83.83v6a.83.83,0,1,1-1.66,0v-6a.84.84,0,0,1,.35-.68,10.86,10.86,0,0,0-1.68,1.34v9.78A6.06,6.06,0,0,0,13.36,26.28Z" transform="translate(-7.7 -1.31)" fill="#fdc799"/><path d="M27.52,10.37a7.84,7.84,0,0,0-5.43-7.61,10,10,0,0,0-2-.29s-1.27,2.59,1.44,5A4.32,4.32,0,0,1,22.61,9a11.43,11.43,0,0,1,4.91,1.81Z" transform="translate(-7.7 -1.31)" fill="#fdce4e"/><path d="M23,11.12v0a10.41,10.41,0,0,1,3.11,1.4,11.41,11.41,0,0,0,1.42-.11V10.85A11.43,11.43,0,0,0,22.61,9,4.89,4.89,0,0,1,23,11.12Z" transform="translate(-7.7 -1.31)" fill="#fdce4e"/><path d="M26.1,12.54A10.41,10.41,0,0,0,23,11.14C23,12.3,24.69,12.56,26.1,12.54Z" transform="translate(-7.7 -1.31)" fill="#fdce4e"/><path d="M19.41,6.83s0,0,0,0Z" transform="translate(-7.7 -1.31)" fill="#fff"/><path d="M19.37,6.79l0,0Z" transform="translate(-7.7 -1.31)" fill="#fff"/><path d="M19.37,6.79A3.72,3.72,0,0,1,18.87,3s.19-.5.17-.5a6.07,6.07,0,0,0-1.95.5,8.2,8.2,0,0,0-4.37,7.4v.41A10.1,10.1,0,0,1,19.37,6.79Z" transform="translate(-7.7 -1.31)" fill="#fff"/><path d="M14.45,12.41l0,0Z" transform="translate(-7.7 -1.31)" fill="#fff"/><path d="M14.05,13.11v6a.83.83,0,1,0,1.66,0v-6a.83.83,0,0,0-.83-.83.78.78,0,0,0-.43.13l0,0A.84.84,0,0,0,14.05,13.11Z" transform="translate(-7.7 -1.31)" fill="#fff"/><path d="M32.66,29.34h0v1.87h0a7.78,7.78,0,0,1,0,15.55h0v1.87h0a9.65,9.65,0,0,0,0-19.29Z" transform="translate(-7.7 -1.31)" fill="#282828"/><path d="M30.81,46.54v0h-4.1a9.52,9.52,0,0,0,5.93,2.06V46.76A7.9,7.9,0,0,1,30.81,46.54Z" transform="translate(-7.7 -1.31)" fill="#282828"/><path d="M30.81,31.43a7.9,7.9,0,0,1,1.83-.22V29.34a9.23,9.23,0,0,0-1.83.18Z" transform="translate(-7.7 -1.31)" fill="#282828"/><path d="M24.88,39a7.78,7.78,0,0,1,5.93-7.56V29.52a9.64,9.64,0,0,0-4.1,17.05h4.1v0A7.78,7.78,0,0,1,24.88,39Z" transform="translate(-7.7 -1.31)" fill="#282828"/><path d="M32.66,46.76a7.78,7.78,0,0,0,0-15.55h0V46.76Zm.85-12.28a.91.91,0,1,1,1.82,0v7.31a.91.91,0,1,1-1.82,0ZM34.42,44a.92.92,0,1,1-.91.91A.91.91,0,0,1,34.42,44Z" transform="translate(-7.7 -1.31)" fill="#fb5c32"/><path d="M30.81,33.57h.12a.92.92,0,0,1,.91.92v7.31a.92.92,0,0,1-.91.92h-.12v1.35h.12a.92.92,0,0,1,0,1.83h-.12v.68a7.9,7.9,0,0,0,1.83.22V31.21a7.9,7.9,0,0,0-1.83.22Z" transform="translate(-7.7 -1.31)" fill="#fb5c32"/><path d="M30,45a.91.91,0,0,1,.8-.9V42.7a.92.92,0,0,1-.8-.91V34.48a.92.92,0,0,1,.8-.91V31.43a7.78,7.78,0,0,0,0,15.11v-.68A.92.92,0,0,1,30,45Z" transform="translate(-7.7 -1.31)" fill="#fb5c32"/><path d="M30.93,45.87a.92.92,0,0,0,0-1.83h-.12v1.81Z" transform="translate(-7.7 -1.31)" fill="#282828"/><path d="M30,45a.92.92,0,0,0,.8.91V44.05A.91.91,0,0,0,30,45Z" transform="translate(-7.7 -1.31)" fill="#282828"/><path d="M30.93,42.71a.92.92,0,0,0,.91-.92V34.48a.92.92,0,0,0-.91-.92h-.12V42.7Z" transform="translate(-7.7 -1.31)" fill="#282828"/><path d="M30,34.48v7.31a.92.92,0,0,0,.8.91V33.57A.92.92,0,0,0,30,34.48Z" transform="translate(-7.7 -1.31)" fill="#282828"/><circle cx="26.72" cy="43.65" r="0.91" fill="#282828"/><path d="M34.42,42.71a.91.91,0,0,0,.91-.92V34.48a.91.91,0,1,0-1.82,0v7.31A.92.92,0,0,0,34.42,42.71Z" transform="translate(-7.7 -1.31)" fill="#282828"/></svg>