<?xml version="1.0" encoding="utf-8"?>
<!-- Generator: Adobe Illustrator 25.2.1, SVG Export Plug-In . SVG Version: 6.00 Build 0)  -->
<svg version="1.1" id="Camada_1" xmlns="http://www.w3.org/2000/svg" xmlns:xlink="http://www.w3.org/1999/xlink" x="0px" y="0px"
	 viewBox="0 0 200 200" style="enable-background:new 0 0 200 200;" xml:space="preserve">
<style type="text/css">
	.st0{fill:#2D2D2B;}
	.st1{fill:#3C3C3B;stroke:#414140;stroke-width:9;stroke-miterlimit:10;}
	.st2{fill:#B12B1E;}
	.st3{fill:#8A2214;stroke:#BB442B;stroke-width:9;stroke-miterlimit:10;}
</style>
<g>
	<g>
		<g>
			<path class="st0" d="M39.08,29.98c0.11-0.06,0.22-0.11,0.33-0.15c1.96-0.74,3.91-1.54,5.9-2.18c8.02-2.57,16.19-3.16,24.46-1.58
				c13.44,2.58,24.24,9.31,32.39,20.37c4.97,6.74,7.46,14.41,9.21,22.42c2.54,11.65,3.66,23.47,4.23,35.35
				c0.98,20.48,0.71,40.94-1.69,61.33c-0.25,2.16-0.58,4.31-0.93,6.55c-0.33,2.13-2.65,3.32-4.57,2.35
				c-2.36-1.19-4.62-2.33-6.83-3.56c-14.32-7.96-27.91-17.06-41.05-26.82c-10.13-7.52-20.06-15.33-28.96-24.3
				c-4.71-4.74-9.17-9.78-13.3-15.03c-3.98-5.06-6.16-11.11-7.51-17.39c-3.06-14.26-0.36-27.5,7.59-39.64
				c3.87-5.9,8.91-10.71,14.93-14.44c0.36-0.22,0.92-0.62,1.24-0.89c0.1-0.08,0.21-0.15,0.33-0.21L39.08,29.98z"/>
		</g>
		<circle class="st1" cx="58.14" cy="70.23" r="30.58"/>
	</g>
	<g>
		<g>
			<path class="st2" d="M160.92,29.98c-0.11-0.06-0.22-0.1-0.33-0.15c-1.97-0.74-3.91-1.54-5.91-2.18
				c-8.02-2.57-16.19-3.16-24.46-1.58c-13.44,2.58-24.24,9.31-32.39,20.37c-4.97,6.74-7.46,14.41-9.21,22.42
				c-2.54,11.65-3.66,23.47-4.23,35.35c-0.98,20.48-0.71,40.94,1.69,61.33c0.26,2.17,0.59,4.34,0.94,6.6
				c0.33,2.11,2.62,3.28,4.52,2.32c2.37-1.19,4.65-2.34,6.88-3.58c14.32-7.96,27.91-17.06,41.05-26.82
				c10.13-7.52,20.06-15.33,28.96-24.3c4.71-4.74,9.17-9.78,13.3-15.03c3.98-5.06,6.16-11.11,7.51-17.39
				c3.06-14.26,0.36-27.5-7.59-39.64c-3.87-5.9-8.91-10.71-14.93-14.44c-0.36-0.22-0.92-0.62-1.24-0.89
				c-0.1-0.08-0.22-0.16-0.33-0.22L160.92,29.98z"/>
		</g>
		<circle class="st3" cx="140.88" cy="70.23" r="30.58"/>
	</g>
</g>
</svg>
