<svg id="Camada_2" data-name="Camada 2" xmlns="http://www.w3.org/2000/svg" viewBox="0 0 43.5 43.5"><path d="M25,3.25A21.75,21.75,0,1,0,46.75,25,21.75,21.75,0,0,0,25,3.25Zm0,41.17A19.42,19.42,0,1,1,44.42,25,19.41,19.41,0,0,1,25,44.42Z" transform="translate(-3.25 -3.25)" fill="#c1272d"/><path d="M25,5.58A19.42,19.42,0,1,0,44.42,25,19.41,19.41,0,0,0,25,5.58ZM10.89,29.78a16.83,16.83,0,0,1-1.49-1,3,3,0,0,1,.68-5,21.77,21.77,0,0,1,2.79-.8,10.45,10.45,0,0,0,3-1,3.19,3.19,0,0,0,1.6-2.45A2.55,2.55,0,0,0,16.31,17a4,4,0,0,0-2.66-.78A2,2,0,0,0,12,19.12a4,4,0,0,0,1.33,1.44l.27.19c-2-.57-3.32-2.51-2-4.49a2.71,2.71,0,0,1,2.14-1.13,4.72,4.72,0,0,1,4.65,2.2,3.89,3.89,0,0,1,.09,3.77,4.73,4.73,0,0,1-3.32,2.77c-1.16.32-2.34.51-3.51.78a6.24,6.24,0,0,0-1.18.38,1.82,1.82,0,0,0-.89,2.63A4.78,4.78,0,0,0,10.8,29c.52.43,1,.85,1.52,1.31A2,2,0,0,1,13,31.68,4.64,4.64,0,0,0,10.89,29.78Zm24.74-1.52a2.82,2.82,0,0,1-3-.81c-.34-.34-.62-.74-.95-1.09a4.92,4.92,0,0,0-.69-.68A1.57,1.57,0,0,0,28.4,27c0,.77.1,1.55.13,2.32a9.51,9.51,0,0,1-.74,4.56,3.79,3.79,0,0,1-2.47,2.28,2.64,2.64,0,0,1-3.16-1.36,2.44,2.44,0,0,1,.22-2.42A1.39,1.39,0,0,1,24,31.78,1.35,1.35,0,0,1,25,33.17s0,0,0,.14c0-.15-.05-.24-.08-.33a1.19,1.19,0,0,0-1.1-.87,1,1,0,0,0-1,.78,1.76,1.76,0,0,0,.5,1.91,1.85,1.85,0,0,0,2.1.07,3.48,3.48,0,0,0,1.41-2.15,10.25,10.25,0,0,0,.27-3.66c0-.78-.1-1.57-.09-2.35a2.69,2.69,0,0,1,1.71-2.57,2.78,2.78,0,0,1,3.12.45,12.79,12.79,0,0,1,1.44,1.67,2.34,2.34,0,0,0,1.42,1,1.94,1.94,0,0,0,2.2-1.51.93.93,0,0,0-.55-1.11,1.1,1.1,0,0,0-1.31.52,2.53,2.53,0,0,0-.08.76.89.89,0,0,1-.05-1.1,1.56,1.56,0,0,1,1.61-.67,1.48,1.48,0,0,1,1.11,1.37A2.67,2.67,0,0,1,35.63,28.26Zm1.44-8.14a8.69,8.69,0,0,1-2.79-1.88c-1.12-1-2.19-2.1-3.32-3.1a7.88,7.88,0,0,0-3.61-2,4.17,4.17,0,0,0-3.32.5,3.13,3.13,0,0,0-1.3,1.77,2.21,2.21,0,0,0,.35,1.91c.35.49.71,1,1.07,1.45a5.16,5.16,0,0,1-3,7.94,15.28,15.28,0,0,0-1.8.45,3.22,3.22,0,0,0-1,.61.82.82,0,0,0-.19,1.08,10.34,10.34,0,0,0,.57.89c.2.28.43.54.62.83a2.72,2.72,0,0,1-1,4.08,10,10,0,0,1-2.27.72,15.74,15.74,0,0,0-1.88.59,2.16,2.16,0,0,0-1.33,1.66,4.52,4.52,0,0,0,0,1,1.66,1.66,0,0,1-.17-1.34,2.52,2.52,0,0,1,1.27-1.76A19.22,19.22,0,0,1,16,34.63a6.19,6.19,0,0,0,1.9-.92,2.86,2.86,0,0,0,.4-.38,1.35,1.35,0,0,0,.09-1.9c-.28-.37-.6-.71-.89-1.06A3.51,3.51,0,0,1,16.64,29a2.45,2.45,0,0,1,.94-2.59,5.62,5.62,0,0,1,2.5-1.06,4.21,4.21,0,0,0,2.16-1,3.54,3.54,0,0,0,.36-4.58c-.31-.39-.61-.77-.89-1.18a4.2,4.2,0,0,1,.51-5.63,5.24,5.24,0,0,1,4.7-1.43A8.64,8.64,0,0,1,31.79,14c1.11,1.09,2.12,2.28,3.19,3.4A18.3,18.3,0,0,0,36.7,19a3.48,3.48,0,0,0,2.46.81,2.69,2.69,0,0,0,2.49-2.11,2.18,2.18,0,0,1-.82,1.84A3.5,3.5,0,0,1,37.07,20.12Z" transform="translate(-3.25 -3.25)" fill="#ff7bac"/><path d="M39.16,19.82A3.48,3.48,0,0,1,36.7,19,18.3,18.3,0,0,1,35,17.44c-1.07-1.12-2.08-2.31-3.19-3.4a8.64,8.64,0,0,0-4.87-2.58,5.24,5.24,0,0,0-4.7,1.43,4.2,4.2,0,0,0-.51,5.63c.28.41.58.79.89,1.18a3.54,3.54,0,0,1-.36,4.58,4.21,4.21,0,0,1-2.16,1,5.62,5.62,0,0,0-2.5,1.06A2.45,2.45,0,0,0,16.64,29a3.51,3.51,0,0,0,.82,1.42c.29.35.61.69.89,1.06a1.35,1.35,0,0,1-.09,1.9,2.86,2.86,0,0,1-.4.38,6.19,6.19,0,0,1-1.9.92,19.22,19.22,0,0,0-2.09.88,2.52,2.52,0,0,0-1.27,1.76,1.66,1.66,0,0,0,.17,1.34,4.52,4.52,0,0,1,0-1A2.16,2.16,0,0,1,14.11,36,15.74,15.74,0,0,1,16,35.39a10,10,0,0,0,2.27-.72,2.72,2.72,0,0,0,1-4.08c-.19-.29-.42-.55-.62-.83a10.34,10.34,0,0,1-.57-.89.82.82,0,0,1,.19-1.08,3.22,3.22,0,0,1,1-.61,15.28,15.28,0,0,1,1.8-.45,5.16,5.16,0,0,0,3-7.94c-.36-.48-.72-1-1.07-1.45a2.21,2.21,0,0,1-.35-1.91A3.13,3.13,0,0,1,24,13.66a4.17,4.17,0,0,1,3.32-.5,7.88,7.88,0,0,1,3.61,2c1.13,1,2.2,2.07,3.32,3.1a8.69,8.69,0,0,0,2.79,1.88,3.5,3.5,0,0,0,3.76-.57,2.18,2.18,0,0,0,.82-1.84A2.69,2.69,0,0,1,39.16,19.82Z" transform="translate(-3.25 -3.25)" fill="#c1272d"/><path d="M36.48,24.17a1.56,1.56,0,0,0-1.61.67.89.89,0,0,0,.05,1.1,2.53,2.53,0,0,1,.08-.76,1.1,1.1,0,0,1,1.31-.52.93.93,0,0,1,.55,1.11,1.94,1.94,0,0,1-2.2,1.51,2.34,2.34,0,0,1-1.42-1,12.79,12.79,0,0,0-1.44-1.67,2.78,2.78,0,0,0-3.12-.45A2.69,2.69,0,0,0,27,26.71c0,.78,0,1.57.09,2.35a10.25,10.25,0,0,1-.27,3.66,3.48,3.48,0,0,1-1.41,2.15,1.85,1.85,0,0,1-2.1-.07,1.76,1.76,0,0,1-.5-1.91,1,1,0,0,1,1-.78,1.19,1.19,0,0,1,1.1.87c0,.09,0,.18.08.33,0-.09,0-.11,0-.14A1.35,1.35,0,0,0,24,31.78a1.39,1.39,0,0,0-1.65.56,2.44,2.44,0,0,0-.22,2.42,2.64,2.64,0,0,0,3.16,1.36,3.79,3.79,0,0,0,2.47-2.28,9.51,9.51,0,0,0,.74-4.56c0-.77-.12-1.55-.13-2.32A1.57,1.57,0,0,1,31,25.68a4.92,4.92,0,0,1,.69.68c.33.35.61.75.95,1.09a2.82,2.82,0,0,0,3,.81,2.67,2.67,0,0,0,2-2.72A1.48,1.48,0,0,0,36.48,24.17Z" transform="translate(-3.25 -3.25)" fill="#c1272d"/><path d="M13,31.68a2,2,0,0,0-.64-1.35c-.48-.46-1-.88-1.52-1.31a4.78,4.78,0,0,1-1.21-1.36A1.82,1.82,0,0,1,10.48,25a6.24,6.24,0,0,1,1.18-.38c1.17-.27,2.35-.46,3.51-.78a4.73,4.73,0,0,0,3.32-2.77,3.89,3.89,0,0,0-.09-3.77,4.72,4.72,0,0,0-4.65-2.2,2.71,2.71,0,0,0-2.14,1.13c-1.37,2,0,3.92,2,4.49l-.27-.19A4,4,0,0,1,12,19.12a2,2,0,0,1,1.69-2.92,4,4,0,0,1,2.66.78,2.55,2.55,0,0,1,1.14,2.53A3.19,3.19,0,0,1,15.85,22a10.45,10.45,0,0,1-3,1,21.77,21.77,0,0,0-2.79.8,3,3,0,0,0-.68,5,16.83,16.83,0,0,0,1.49,1A4.64,4.64,0,0,1,13,31.68Z" transform="translate(-3.25 -3.25)" fill="#c1272d"/></svg>