<svg id="Camada_1" data-name="Camada 1" xmlns="http://www.w3.org/2000/svg" viewBox="0 0 44.17 46"><path d="M31.56,30.45l.58-1.64h1.33a17.66,17.66,0,0,0,2.41-.19A13.4,13.4,0,0,0,33.58,2H17.32C15.68,2,14,2,12.39,2a1.58,1.58,0,0,0-1.59,1.5,1.6,1.6,0,0,0,1.45,1.64,1.36,1.36,0,0,1,.29,0,.78.78,0,0,1,0,1.54,2.14,2.14,0,0,1-.44,0c-1.48,0-3,0-4.44,0A1.58,1.58,0,0,0,6.07,8.18,1.6,1.6,0,0,0,7.31,9.85a3.44,3.44,0,0,0,.64,0H20.07c.86,0,1.15.42.9,1.24-.15.54-.3,1.08-.42,1.62-.22,1.12-.28,1.17-1.4,1.08H14.08a1.61,1.61,0,0,0-1.7,1.6A1.58,1.58,0,0,0,14.06,17h5.52a.76.76,0,0,1,.89.71c.16.65.31,1.31.5,1.95.26.9,0,1.29-.94,1.29H7.86a2.26,2.26,0,0,0-.86.15,1.55,1.55,0,0,0-.91,1.69,1.59,1.59,0,0,0,1.57,1.3H12.3a.79.79,0,0,1,.86.75.8.8,0,0,1-.8.82h-.2A1.62,1.62,0,0,0,10.8,27.2a1.6,1.6,0,0,0,1.34,1.59,3.25,3.25,0,0,0,.54,0c5.89,0,11.79,0,17.68,0L30,30Zm2.17-4.79A10.25,10.25,0,1,1,43.92,15.4,10.25,10.25,0,0,1,33.73,25.66Z" transform="translate(-2.92 -2)" fill="#89ccbe"/><path d="M6.15,17a1.57,1.57,0,0,0,0-3.14,17.42,17.42,0,0,0-1.77,0A1.56,1.56,0,0,0,2.92,15.4,1.57,1.57,0,0,0,4.38,17c.29,0,.59,0,.88,0h0C5.56,17,5.85,17,6.15,17Z" transform="translate(-2.92 -2)" fill="#bdccd4"/><path d="M36.52,13.83H34.45c0-1.57,0-3.06,0-4.56,0-.46-.15-.82-.62-.93s-.77.16-1,.58c-1,2.26-2,4.52-3,6.79-.34.76,0,1.27.82,1.27h2.19v4.48c0,.61.2,1,.64,1s.77-.23,1-.66c1-2.21,2-4.41,2.93-6.61C37.82,14.3,37.51,13.83,36.52,13.83Z" transform="translate(-2.92 -2)" fill="#ddda00"/><rect x="25.9" y="29.12" width="4.01" height="19.29" rx="2.01" transform="translate(10.99 -8.9) rotate(18.71)" fill="#8977be"/></svg>