<svg id="Camada_2" data-name="Camada 2" xmlns="http://www.w3.org/2000/svg" viewBox="0 0 46.88 43.43"><path d="M24.22,37a11.84,11.84,0,0,1-9.55-5.75.47.47,0,0,0-.48-.26,4.18,4.18,0,0,1-1.52-8.12.52.52,0,0,0,.38-.45A12,12,0,0,1,19.25,14a.59.59,0,0,0,.37-.64,4.28,4.28,0,0,1,8.51-.83.58.58,0,0,0,.49.54A12,12,0,0,1,36.27,20a.75.75,0,0,0,.67.53,4.17,4.17,0,0,1,.15,8.2.78.78,0,0,0-.69.55C34.58,33.94,30.05,37,24.22,37ZM34.87,20.63a10.59,10.59,0,0,0-11.43-6.42,10.42,10.42,0,0,0-6.51,3.6,10.55,10.55,0,0,0-2.36,4.82,4.22,4.22,0,0,1,1.48,7.87A10.61,10.61,0,0,0,35,28.62a4.23,4.23,0,0,1-.09-8ZM14,29.46a2.66,2.66,0,1,0-2.65-2.68A2.69,2.69,0,0,0,14,29.46Zm22.16-2.2a2.65,2.65,0,1,0-2.61-2.7A2.66,2.66,0,0,0,36.2,27.26ZM26.57,12.64a2.74,2.74,0,0,0-3.26-2.09,2.6,2.6,0,0,0-2.09,2.61A12.39,12.39,0,0,1,26.57,12.64Z" transform="translate(-1.56 -3.29)" fill="#d4145a" stroke="#d4145a" stroke-miterlimit="10"/><path d="M6.14,21.11H8.36L5.42,25.42,2.5,21.11H4.62a1.43,1.43,0,0,0,.06-.3,14.56,14.56,0,0,1,3.13-8A21.35,21.35,0,0,1,22.49,4C31,2.93,37.91,6,43,12.91a35.74,35.74,0,0,1,2.12,3.72c.06.12.1.26.17.44-.51,0-1,0-1.43,0-.11,0-.24-.2-.31-.33a21.46,21.46,0,0,0-3.94-5.41,20.12,20.12,0,0,0-10-5.7,18.46,18.46,0,0,0-11.7,1.2A21.33,21.33,0,0,0,8,15.25a11.55,11.55,0,0,0-1.85,5.17C6.16,20.64,6.15,20.85,6.14,21.11Z" transform="translate(-1.56 -3.29)" fill="#d4145a" stroke="#d4145a" stroke-miterlimit="10"/><path d="M43.87,28.9H41.63l2.95-4.3,2.92,4.34H45.33c0,.32,0,.61-.08.9a14.39,14.39,0,0,1-2.83,7,21.9,21.9,0,0,1-14.34,9A21.4,21.4,0,0,1,4.77,33.13c0-.07,0-.14-.1-.28.52,0,1,0,1.49,0,.08,0,.16.17.22.28a21.74,21.74,0,0,0,7.26,8.23c6,4.05,12.4,4.46,19,1.64a19.77,19.77,0,0,0,9.12-7.57,14,14,0,0,0,2.13-6.39S43.88,29,43.87,28.9Z" transform="translate(-1.56 -3.29)" fill="#d4145a" stroke="#d4145a" stroke-miterlimit="10"/></svg>