<svg id="Camada_1" data-name="Camada 1" xmlns="http://www.w3.org/2000/svg" viewBox="0 0 42.57 47.37"><path d="M16.51,38.09l-3.16,3.16c-.68.68-1.34,1.36-2,2A.9.9,0,0,0,11,44a3.61,3.61,0,0,1-7,1.31,3.54,3.54,0,0,1,1.5-4.39,5.61,5.61,0,0,1,1.82-.52,1.27,1.27,0,0,0,.81-.37c1.55-1.57,3.11-3.12,4.67-4.68l.53-.51A13.56,13.56,0,0,1,11.43,23c-.95-.36-1.87-.73-2.81-1.06-.1,0-.28.12-.4.21a2.71,2.71,0,1,1-2.5-4.64,2.66,2.66,0,0,1,3.34,2.08.92.92,0,0,0,.72.85c.77.25,1.51.56,2.26.85.39-.65.73-1.29,1.13-1.9s.68-.91,1-1.34a.35.35,0,0,0,0-.51c-1.27-1.73-2.52-3.48-3.79-5.21a.74.74,0,0,0-.57-.2A5.46,5.46,0,0,1,4.32,6.52,5.36,5.36,0,0,1,8.09,1.6,5.14,5.14,0,0,1,13.6,3a5.16,5.16,0,0,1,1.21,5.62.66.66,0,0,0,.1.69c1.21,1.67,2.42,3.33,3.62,5a.47.47,0,0,0,.69.21,13.28,13.28,0,0,1,9.49-.32c.3.1.45.07.6-.22.4-.75.83-1.49,1.27-2.21a1.07,1.07,0,0,0,.13-.92A3.61,3.61,0,1,1,37.17,12a3.66,3.66,0,0,1-2,1.44,1.07,1.07,0,0,0-.57.43c-.48.78-.94,1.59-1.38,2.4a.43.43,0,0,0,0,.4,14.27,14.27,0,0,1,3.12,3.84s0,0,.11.08c1.4-.63,2.83-1.27,4.25-1.93.11-.05.18-.28.19-.43a2.75,2.75,0,0,1,2.06-2.49,2.72,2.72,0,0,1,3,1.23,2.69,2.69,0,0,1-.52,3.42,2.66,2.66,0,0,1-3.42.13.64.64,0,0,0-.79-.08c-1.23.57-2.47,1.13-3.72,1.66-.3.13-.32.27-.23.54a13.36,13.36,0,0,1-.65,10.23,14.39,14.39,0,0,1-1,1.7c-.14.22-.12.32.05.49,1.72,1.69,3.43,3.4,5.16,5.08a1,1,0,0,0,.63.2,3.61,3.61,0,1,1-3.62,3.69,1,1,0,0,0-.34-.82c-1.6-1.58-3.19-3.18-4.78-4.78a2,2,0,0,1-.3-.39c-1.06.53-2,1-2.94,1.47a12.57,12.57,0,0,1-1.7.57c-.24.06-.31.15-.26.4.15.83.29,1.67.4,2.52,0,.31.26.32.46.39A2.71,2.71,0,1,1,25,47.06a2.68,2.68,0,0,1,.83-3.22.61.61,0,0,0,.29-.7c-.15-.77-.24-1.56-.39-2.34,0-.11-.22-.3-.32-.29a13.67,13.67,0,0,1-8.77-2.42Zm-6.74-35a3.6,3.6,0,1,0,.5,7.16,1.25,1.25,0,0,1,1.36.59c1.5,2.11,3,4.21,4.55,6.32.46.63.45,1-.1,1.52a10.89,10.89,0,0,0-2.24,3.16,11.58,11.58,0,0,0,1.31,12.33,1,1,0,0,1-.07,1.43c-.32.35-.65.69-1,1-1.69,1.7-3.39,3.39-5.07,5.1a1.43,1.43,0,0,1-1.39.47,1.79,1.79,0,1,0,1.54,1.49,1.24,1.24,0,0,1,.42-1.28c.28-.25.53-.53.79-.79,1.77-1.75,3.53-3.52,5.31-5.26.65-.63.87-.61,1.61-.06a11.5,11.5,0,0,0,6.19,2.35,11.68,11.68,0,0,0,8.16-2.47.92.92,0,0,1,1.42.08l.72.72,5.51,5.5a1.12,1.12,0,0,1,.34,1.09,1.77,1.77,0,0,0,.91,2A1.8,1.8,0,0,0,43,43.16a1.76,1.76,0,0,0-2-.92,1.07,1.07,0,0,1-1-.3l-6.24-6.28a1,1,0,0,1-.06-1.5c.17-.22.34-.45.49-.69a11.69,11.69,0,0,0-2.74-15.84.92.92,0,0,1-.3-1.36c.68-1.22,1.4-2.43,2.06-3.66a1.47,1.47,0,0,1,1.28-.88A1.72,1.72,0,0,0,36,10.16a1.8,1.8,0,1,0-3.43.56,1,1,0,0,1,.1,1c-.78,1.36-1.56,2.72-2.36,4.07a1,1,0,0,1-1.31.42,23.5,23.5,0,0,0-3.27-.86,10.92,10.92,0,0,0-6.59,1.15,1.05,1.05,0,0,1-1.48-.36c-1.53-2.11-3.05-4.24-4.6-6.34A1.26,1.26,0,0,1,13,8.34,3.59,3.59,0,0,0,9.77,3.13ZM27.46,46.87a.89.89,0,0,0,.88-.93.9.9,0,0,0-.91-.86.91.91,0,0,0-.89.93A.9.9,0,0,0,27.46,46.87Zm17-28.46a.89.89,0,0,0-.85-.91.91.91,0,0,0-.93.89.89.89,0,0,0,.86.9A.87.87,0,0,0,44.46,18.41Zm-38,2.64a.88.88,0,0,0,.9-.86.9.9,0,1,0-1.79-.06A.89.89,0,0,0,6.42,21.05Z" transform="translate(-3.72 -1.31)" fill="#0071bc"/><path d="M9.77,3.13A3.59,3.59,0,0,1,13,8.34a1.26,1.26,0,0,0,.11,1.48c1.55,2.1,3.07,4.23,4.6,6.34a1.05,1.05,0,0,0,1.48.36,10.92,10.92,0,0,1,6.59-1.15,23.5,23.5,0,0,1,3.27.86,1,1,0,0,0,1.31-.42c.8-1.35,1.58-2.71,2.36-4.07a1,1,0,0,0-.1-1A1.8,1.8,0,1,1,36,10.16a1.72,1.72,0,0,1-1.53,1.57,1.47,1.47,0,0,0-1.28.88c-.66,1.23-1.38,2.44-2.06,3.66a.92.92,0,0,0,.3,1.36,11.69,11.69,0,0,1,2.74,15.84c-.15.24-.32.47-.49.69a1,1,0,0,0,.06,1.5L40,41.94a1.07,1.07,0,0,0,1,.3,1.76,1.76,0,0,1,2,.92,1.8,1.8,0,0,1-2.44,2.42,1.77,1.77,0,0,1-.91-2,1.12,1.12,0,0,0-.34-1.09L33.79,37l-.72-.72a.92.92,0,0,0-1.42-.08,11.68,11.68,0,0,1-8.16,2.47,11.5,11.5,0,0,1-6.19-2.35c-.74-.55-1-.57-1.61.06-1.78,1.74-3.54,3.51-5.31,5.26-.26.26-.51.54-.79.79a1.24,1.24,0,0,0-.42,1.28A1.76,1.76,0,0,1,7.7,45.78a1.79,1.79,0,1,1-.07-3.54A1.43,1.43,0,0,0,9,41.77c1.68-1.71,3.38-3.4,5.07-5.1.34-.34.67-.68,1-1a1,1,0,0,0,.07-1.43,11.58,11.58,0,0,1-1.31-12.33,10.89,10.89,0,0,1,2.24-3.16c.55-.55.56-.89.1-1.52-1.52-2.11-3-4.21-4.55-6.32a1.25,1.25,0,0,0-1.36-.59,3.6,3.6,0,1,1-.5-7.16Zm19.06,30.5a3,3,0,0,0,.29.56c.06.08.25.17.32.14a.47.47,0,0,0,.2-.34c0-.16-.13-.3-.16-.46s0-.28,0-.34a5.39,5.39,0,0,1,.59-.45l.27.29c.15.16.29.42.54.21s.12-.45-.07-.62-.28-.45,0-.7a3.05,3.05,0,0,0,.32-.38l.32.2c.21.14.43.3.62,0s-.05-.4-.24-.53L31.49,31l.39-.85.41.11c.22.08.46.14.56-.15s-.13-.39-.36-.46-.45-.08-.41-.45.07-.54.44-.57a.46.46,0,0,0,.25-.08.76.76,0,0,0,.18-.4c0-.06-.22-.17-.34-.17a2.93,2.93,0,0,0-.59.11c-.32-.59-.32-.59.09-1.07,0,0,.08-.07.08-.1s0-.3,0-.45a1.05,1.05,0,0,0-.4.07,2.78,2.78,0,0,0-.44.39c-.47-.17-.7-.4-.47-.9.06-.13-.09-.35-.14-.53-.13.11-.33.2-.39.34-.26.59-.25.6-.91.48a1.73,1.73,0,0,0-.12-.51,1.46,1.46,0,0,0-.32-.34c-.09.15-.27.33-.24.44.18.54-.05.81-.57,1a3.19,3.19,0,0,0-.4-.43c-.09-.07-.33-.11-.37-.06a.56.56,0,0,0-.1.43c0,.14.21.25.29.39a.34.34,0,0,1,.06.27c-.15.31-.33.62-.5.93-.27-.13-.19-.74-.63-.54s0,.6,0,.92l-1.11-.12a2.06,2.06,0,0,0-.12-.53,1.72,1.72,0,0,0-.33-.33c-.08.15-.26.33-.22.45.17.54-.07.79-.58.94a2.44,2.44,0,0,0-.35-.37,1.64,1.64,0,0,0-.46-.12c0,.18-.07.39,0,.51.35.59.37.58-.09,1.11a2.07,2.07,0,0,0-.54-.15.3.3,0,0,0-.18.58,2.41,2.41,0,0,0,.54.21c.09.53,0,.9-.59.94,0,0-.08,0-.09,0s-.17.27-.16.4.22.17.34.17a2.58,2.58,0,0,0,.6-.13l.31.66a3.38,3.38,0,0,0-.48.53c-.07.1,0,.29,0,.43.13,0,.29,0,.39,0a3.36,3.36,0,0,0,.5-.44l.57.4a3.73,3.73,0,0,0-.18.67c0,.12.1.25.16.37.12-.07.3-.11.37-.22a2.84,2.84,0,0,0,.24-.64l.82.15a3.38,3.38,0,0,0,0,.64c0,.13.17.24.25.35.11-.1.27-.19.31-.31a2.86,2.86,0,0,0,.08-.67l.86-.1a2.41,2.41,0,0,0,.13.57c.07.13.23.21.34.31a1.34,1.34,0,0,0,.23-.42A2.7,2.7,0,0,0,28,34l.64-.28ZM22.06,20.29c0,.53,0,.53-.48.4a1.86,1.86,0,0,0-.66-.1c-.39,0-.5-.14-.49-.49a.78.78,0,0,0-.65-.88.73.73,0,0,0-.83.39c-.22.39-.12.74.3,1.08.23.19.32.36.08.63a2.49,2.49,0,0,0-.4.69c-.19.44-.21.45-.54.12a.59.59,0,0,0-.87-.06.56.56,0,0,0-.07.81.57.57,0,0,0,.83.11c.45-.29.45-.3.59.22a1.11,1.11,0,0,0,.15.42c.33.42.21.66-.25.89a.69.69,0,0,0-.32.88.73.73,0,0,0,.73.56.67.67,0,0,0,.76-.55c.07-.58.32-.66.86-.61s.64.21.6.68a.63.63,0,0,0,.52.69,1.21,1.21,0,0,0,.81-.18.72.72,0,0,0,0-1.13c-.35-.28-.47-.52-.09-.85a.18.18,0,0,0,.05-.07c.21-.5.49-.62,1-.31a.71.71,0,0,0,1-.35.73.73,0,0,0-.26-1,1.33,1.33,0,0,0-.84,0c-.31.07-.5.07-.62-.28a2.51,2.51,0,0,0-.38-.65c-.27-.35-.26-.4.17-.49a.57.57,0,0,0,.5-.67.52.52,0,0,0-.61-.52A.54.54,0,0,0,22.06,20.29Zm-5.79,8.93a.89.89,0,0,0-.76,1.3,9.37,9.37,0,0,0,4.42,4.92.87.87,0,1,0,.84-1.52,11.23,11.23,0,0,1-1.09-.7,7.5,7.5,0,0,1-2.53-3.3A1,1,0,0,0,16.27,29.22Zm11.22-9.74c.12.13.28.46.54.6a7.89,7.89,0,0,1,3.62,4,1.17,1.17,0,0,0,.29.44.83.83,0,0,0,1.07.05.9.9,0,0,0,.26-1.12,9.42,9.42,0,0,0-3.16-4.13,8.21,8.21,0,0,0-1.25-.79A.91.91,0,0,0,27.49,19.48ZM17,27.6a.88.88,0,1,0-.9.85A.87.87,0,0,0,17,27.6Zm7.89-9.14a.83.83,0,0,0,.84.85.87.87,0,0,0,.89-.87,1,1,0,0,0-.94-.88A.85.85,0,0,0,24.93,18.46Z" transform="translate(-3.72 -1.31)" fill="#92e8fe"/><path d="M27.46,46.87a.9.9,0,0,1-.92-.86.91.91,0,0,1,.89-.93.9.9,0,0,1,.91.86A.89.89,0,0,1,27.46,46.87Z" transform="translate(-3.72 -1.31)" fill="#fff"/><path d="M44.46,18.41a.87.87,0,0,1-.92.88.89.89,0,0,1-.86-.9.91.91,0,0,1,.93-.89A.89.89,0,0,1,44.46,18.41Z" transform="translate(-3.72 -1.31)" fill="#fff"/><path d="M6.42,21.05a.89.89,0,0,1-.89-.92.9.9,0,1,1,1.79.06A.88.88,0,0,1,6.42,21.05Z" transform="translate(-3.72 -1.31)" fill="#fff"/><path d="M28.83,33.63l-.19,0L28,34a2.7,2.7,0,0,1,.08.62,1.34,1.34,0,0,1-.23.42c-.11-.1-.27-.18-.34-.31a2.41,2.41,0,0,1-.13-.57l-.86.1a2.86,2.86,0,0,1-.08.67c0,.12-.2.21-.31.31-.08-.11-.22-.22-.25-.35a3.38,3.38,0,0,1,0-.64l-.82-.15a2.84,2.84,0,0,1-.24.64c-.07.11-.25.15-.37.22-.06-.12-.17-.25-.16-.37a3.73,3.73,0,0,1,.18-.67l-.57-.4a3.36,3.36,0,0,1-.5.44c-.1.07-.26,0-.39,0,0-.14-.08-.33,0-.43a3.38,3.38,0,0,1,.48-.53l-.31-.66a2.58,2.58,0,0,1-.6.13c-.12,0-.33-.1-.34-.17s.1-.27.16-.4.06,0,.09,0c.57,0,.68-.41.59-.94a2.41,2.41,0,0,1-.54-.21.3.3,0,0,1,.18-.58,2.07,2.07,0,0,1,.54.15c.46-.53.44-.52.09-1.11-.07-.12,0-.33,0-.51a1.64,1.64,0,0,1,.46.12,2.44,2.44,0,0,1,.35.37c.51-.15.75-.4.58-.94,0-.12.14-.3.22-.45a1.72,1.72,0,0,1,.33.33,2.06,2.06,0,0,1,.12.53l1.11.12c0-.32-.45-.7,0-.92s.36.41.63.54c.17-.31.35-.62.5-.93a.34.34,0,0,0-.06-.27c-.08-.14-.25-.25-.29-.39a.56.56,0,0,1,.1-.43c0-.05.28,0,.37.06a3.19,3.19,0,0,1,.4.43c.52-.15.75-.42.57-1,0-.11.15-.29.24-.44a1.46,1.46,0,0,1,.32.34,1.73,1.73,0,0,1,.12.51c.66.12.65.11.91-.48.06-.14.26-.23.39-.34.05.18.2.4.14.53-.23.5,0,.73.47.9a2.78,2.78,0,0,1,.44-.39,1.05,1.05,0,0,1,.4-.07c0,.15,0,.3,0,.45s0,.07-.08.1c-.41.48-.41.48-.09,1.07a2.93,2.93,0,0,1,.59-.11c.12,0,.34.11.34.17a.76.76,0,0,1-.18.4.46.46,0,0,1-.25.08c-.37,0-.41.26-.44.57s.19.38.41.45.46.16.36.46-.34.23-.56.15l-.41-.11-.39.85.36.26c.19.13.41.27.24.53s-.41.13-.62,0l-.32-.2a3.05,3.05,0,0,1-.32.38c-.27.25-.25.46,0,.7s.31.41.07.62-.39-.05-.54-.21l-.27-.29a5.39,5.39,0,0,0-.59.45c-.07.06-.06.23,0,.34s.16.3.16.46a.47.47,0,0,1-.2.34c-.07,0-.26-.06-.32-.14A3,3,0,0,1,28.83,33.63Zm-2.56-.05c.33,0,.58,0,.83-.09a5.57,5.57,0,0,0,4.37-4.12,2,2,0,0,0-1.19-2.29,1.94,1.94,0,0,0-2.36,1.05c-.06.13-.11.27-.16.41a1.3,1.3,0,0,1-1.58.83A2,2,0,0,0,23.71,31a2,2,0,0,0,1.53,2.43C25.6,33.5,26,33.53,26.27,33.58Z" transform="translate(-3.72 -1.31)" fill="#2e3192"/><path d="M22.06,20.29a.54.54,0,0,1,.53-.66.52.52,0,0,1,.61.52.57.57,0,0,1-.5.67c-.43.09-.44.14-.17.49a2.51,2.51,0,0,1,.38.65c.12.35.31.35.62.28a1.33,1.33,0,0,1,.84,0,.73.73,0,0,1,.26,1,.71.71,0,0,1-1,.35c-.5-.31-.78-.19-1,.31a.18.18,0,0,1-.05.07c-.38.33-.26.57.09.85a.72.72,0,0,1,0,1.13,1.21,1.21,0,0,1-.81.18.63.63,0,0,1-.52-.69c0-.47-.1-.64-.6-.68s-.79,0-.86.61a.67.67,0,0,1-.76.55.73.73,0,0,1-.73-.56.69.69,0,0,1,.32-.88c.46-.23.58-.47.25-.89a1.11,1.11,0,0,1-.15-.42c-.14-.52-.14-.51-.59-.22a.57.57,0,0,1-.83-.11.56.56,0,0,1,.07-.81.59.59,0,0,1,.87.06c.33.33.35.32.54-.12a2.49,2.49,0,0,1,.4-.69c.24-.27.15-.44-.08-.63-.42-.34-.52-.69-.3-1.08a.73.73,0,0,1,.83-.39.78.78,0,0,1,.65.88c0,.35.1.52.49.49a1.86,1.86,0,0,1,.66.1C22.06,20.82,22.08,20.82,22.06,20.29Zm-1.22,1.18a1,1,0,1,0,0,2,1,1,0,0,0,.95-1A1,1,0,0,0,20.84,21.47Zm-2.56,1c-.18-.11-.29-.24-.38-.22a.37.37,0,0,0-.21.27c0,.05.15.19.23.19S18.11,22.62,18.28,22.5Zm4.3-1.9c.14-.18.26-.27.27-.37s-.13-.18-.2-.27c-.09.08-.23.14-.25.24S22.48,20.4,22.58,20.6Z" transform="translate(-3.72 -1.31)" fill="#2e3192"/><path d="M16.27,29.22a1,1,0,0,1,.88.7,7.5,7.5,0,0,0,2.53,3.3,11.23,11.23,0,0,0,1.09.7.87.87,0,1,1-.84,1.52,9.37,9.37,0,0,1-4.42-4.92A.89.89,0,0,1,16.27,29.22Z" transform="translate(-3.72 -1.31)" fill="#2e3192"/><path d="M27.49,19.48a.91.91,0,0,1,1.37-.91,8.21,8.21,0,0,1,1.25.79,9.42,9.42,0,0,1,3.16,4.13A.9.9,0,0,1,33,24.61a.83.83,0,0,1-1.07-.05,1.17,1.17,0,0,1-.29-.44,7.89,7.89,0,0,0-3.62-4C27.77,19.94,27.61,19.61,27.49,19.48Z" transform="translate(-3.72 -1.31)" fill="#2e3192"/><path d="M17,27.6a.86.86,0,0,1-.9.85.88.88,0,0,1-.86-.91A.88.88,0,0,1,17,27.6Z" transform="translate(-3.72 -1.31)" fill="#2e3192"/><path d="M24.93,18.46a.85.85,0,0,1,.79-.9,1,1,0,0,1,.94.88.87.87,0,0,1-.89.87A.83.83,0,0,1,24.93,18.46Z" transform="translate(-3.72 -1.31)" fill="#2e3192"/><path d="M26.27,33.58c-.3,0-.67-.08-1-.17A2,2,0,0,1,23.71,31a2,2,0,0,1,2.47-1.61,1.3,1.3,0,0,0,1.58-.83c0-.14.1-.28.16-.41a1.94,1.94,0,0,1,2.36-1.05,2,2,0,0,1,1.19,2.29,5.57,5.57,0,0,1-4.37,4.12C26.85,33.53,26.6,33.55,26.27,33.58Zm-.08-.74a4.8,4.8,0,0,0,4.61-3.55,1.28,1.28,0,0,0-.26-1.17,1.23,1.23,0,0,0-2.12.54,2,2,0,0,1-2.49,1.41,1.28,1.28,0,0,0-1.55,1,1.26,1.26,0,0,0,.89,1.61A7.54,7.54,0,0,0,26.19,32.84Z" transform="translate(-3.72 -1.31)" fill="#fff"/><path d="M20.84,21.47a1,1,0,0,1,1,1,1,1,0,0,1-.95,1,1,1,0,1,1,0-2Zm0,.43a.57.57,0,0,0-.59.53.55.55,0,0,0,.57.56.55.55,0,0,0,0-1.09Z" transform="translate(-3.72 -1.31)" fill="#fff"/><path d="M18.28,22.5c-.17.12-.26.23-.36.24s-.24-.14-.23-.19a.37.37,0,0,1,.21-.27C18,22.26,18.1,22.39,18.28,22.5Z" transform="translate(-3.72 -1.31)" fill="#fff"/><path d="M22.58,20.6c-.1-.2-.2-.32-.18-.4s.16-.16.25-.24c.07.09.2.18.2.27S22.72,20.42,22.58,20.6Z" transform="translate(-3.72 -1.31)" fill="#fff"/><path d="M26.19,32.84a7.54,7.54,0,0,1-.92-.17,1.26,1.26,0,0,1-.89-1.61,1.28,1.28,0,0,1,1.55-1,2,2,0,0,0,2.49-1.41,1.23,1.23,0,0,1,2.12-.54,1.28,1.28,0,0,1,.26,1.17A4.8,4.8,0,0,1,26.19,32.84Zm.16-.62a4.19,4.19,0,0,0,3.84-2.93.7.7,0,0,0-.34-.91.65.65,0,0,0-.87.48,2.68,2.68,0,0,1-3.23,1.83.63.63,0,0,0-.8.53.65.65,0,0,0,.44.81C25.7,32.12,26,32.16,26.35,32.22Z" transform="translate(-3.72 -1.31)" fill="#2e3192"/><path d="M20.88,21.9a.55.55,0,0,1,0,1.09.55.55,0,0,1-.57-.56A.57.57,0,0,1,20.88,21.9Z" transform="translate(-3.72 -1.31)" fill="#2e3192"/><path d="M26.35,32.22c-.32-.06-.65-.1-1-.19a.65.65,0,0,1-.44-.81.63.63,0,0,1,.8-.53A2.68,2.68,0,0,0,29,28.86a.65.65,0,0,1,.87-.48.7.7,0,0,1,.34.91A4.19,4.19,0,0,1,26.35,32.22Z" transform="translate(-3.72 -1.31)" fill="#fff"/></svg>