<?xml version="1.0" encoding="utf-8"?>
<!-- Generator: Adobe Illustrator 25.2.1, SVG Export Plug-In . SVG Version: 6.00 Build 0)  -->
<svg version="1.1" id="Camada_1" xmlns="http://www.w3.org/2000/svg" xmlns:xlink="http://www.w3.org/1999/xlink" x="0px" y="0px"
	 viewBox="0 0 50 50" style="enable-background:new 0 0 50 50;" xml:space="preserve">
<g>
	<path d="M41.61,15.46H8.39c-1.36,0-2.46-1.1-2.46-2.46v0c0-1.36,1.1-2.46,2.46-2.46h33.23c1.36,0,2.46,1.1,2.46,2.46v0
		C44.08,14.36,42.97,15.46,41.61,15.46z"/>
	<path d="M41.61,27.46H8.39c-1.36,0-2.46-1.1-2.46-2.46v0c0-1.36,1.1-2.46,2.46-2.46h33.23c1.36,0,2.46,1.1,2.46,2.46v0
		C44.08,26.36,42.97,27.46,41.61,27.46z"/>
	<path d="M41.61,39.46H8.39c-1.36,0-2.46-1.1-2.46-2.46v0c0-1.36,1.1-2.46,2.46-2.46h33.23c1.36,0,2.46,1.1,2.46,2.46v0
		C44.08,38.36,42.97,39.46,41.61,39.46z"/>
</g>
</svg>
